HIERARCHY
ROOT Root
{
  OFFSET 0.0 0.0 0.0
  CHANNELS 6 Xposition Yposition Zposition Zrotation Yrotation Xrotation
  JOINT Hips
  {
    OFFSET 0.0 100.0 0.0
    CHANNELS 6 Xposition Yposition Zposition Zrotation Yrotation Xrotation
    JOINT Spine1
    {
      OFFSET 5.003913 -0.037094 -0.013727
      CHANNELS 3 Zrotation Yrotation Xrotation
      JOINT Spine2
      {
        OFFSET 7.125363 -1e-06 0.0
        CHANNELS 3 Zrotation Yrotation Xrotation
        JOINT Chest
        {
          OFFSET 7.594027 1e-06 0.0
          CHANNELS 3 Zrotation Yrotation Xrotation
          JOINT Neck1
          {
            OFFSET 26.313086 -0.460272 -0.181672
            CHANNELS 3 Zrotation Yrotation Xrotation
            JOINT Neck2
            {
              OFFSET 8.045911 0.0 0.0
              CHANNELS 3 Zrotation Yrotation Xrotation
              JOINT Head
              {
                OFFSET 6.432774 0.0 0.0
                CHANNELS 3 Zrotation Yrotation Xrotation
                JOINT HeadEnd
                {
                  OFFSET 16.169773 0.06451 0.00362
                  CHANNELS 3 Zrotation Yrotation Xrotation
                }
                JOINT Jaw
                {
                  OFFSET 0.108741 3.12938 0.002639
                  CHANNELS 3 Zrotation Yrotation Xrotation
                }
                JOINT LeftEye
                {
                  OFFSET 4.45173 8.166359 3.206392
                  CHANNELS 3 Zrotation Yrotation Xrotation
                }
                JOINT RightEye
                {
                  OFFSET 4.436895 8.135758 -3.222429
                  CHANNELS 3 Zrotation Yrotation Xrotation
                }
              }
            }
          }
          JOINT LeftShoulder
          {
            OFFSET 23.218927 5.195579 1.621656
            CHANNELS 3 Zrotation Yrotation Xrotation
            JOINT LeftArm
            {
              OFFSET 15.902118 2e-06 -2e-06
              CHANNELS 3 Zrotation Yrotation Xrotation
              JOINT LeftForeArm
              {
                OFFSET 28.739307 0.0 -1e-06
                CHANNELS 3 Zrotation Yrotation Xrotation
                JOINT LeftHand
                {
                  OFFSET 27.093981 -4e-06 0.0
                  CHANNELS 3 Zrotation Yrotation Xrotation
                  JOINT LeftHandThumb1
                  {
                    OFFSET 2.276781 3.380274 0.83384
                    CHANNELS 3 Zrotation Yrotation Xrotation
                    JOINT LeftHandThumb2
                    {
                      OFFSET 4.705309 -1e-06 -1e-06
                      CHANNELS 3 Zrotation Yrotation Xrotation
                      JOINT LeftHandThumb3
                      {
                        OFFSET 2.798515 0.0 3e-06
                        CHANNELS 3 Zrotation Yrotation Xrotation
                        JOINT LeftHandThumbEnd
                        {
                          OFFSET 3.180793 4e-06 -4e-06
                          CHANNELS 3 Zrotation Yrotation Xrotation
                        }
                      }
                    }
                  }
                  JOINT LeftHandIndex1
                  {
                    OFFSET 3.247786 2.352677 0.137192
                    CHANNELS 3 Zrotation Yrotation Xrotation
                    JOINT LeftHandIndex2
                    {
                      OFFSET 6.367095 1e-06 0.0
                      CHANNELS 3 Zrotation Yrotation Xrotation
                      JOINT LeftHandIndex3
                      {
                        OFFSET 3.662364 0.0 0.0
                        CHANNELS 3 Zrotation Yrotation Xrotation
                        JOINT LeftHandIndex4
                        {
                          OFFSET 2.329242 4e-06 -4e-06
                          CHANNELS 3 Zrotation Yrotation Xrotation
                          JOINT LeftHandIndexEnd
                          {
                            OFFSET 2.767823 1e-06 0.0
                            CHANNELS 3 Zrotation Yrotation Xrotation
                          }
                        }
                      }
                    }
                  }
                  JOINT LeftHandMiddle1
                  {
                    OFFSET 3.163612 0.945023 -0.406112
                    CHANNELS 3 Zrotation Yrotation Xrotation
                    JOINT LeftHandMiddle2
                    {
                      OFFSET 6.276789 3e-06 0.0
                      CHANNELS 3 Zrotation Yrotation Xrotation
                      JOINT LeftHandMiddle3
                      {
                        OFFSET 4.35652 -1e-06 4e-06
                        CHANNELS 3 Zrotation Yrotation Xrotation
                        JOINT LeftHandMiddle4
                        {
                          OFFSET 2.996877 0.0 8e-06
                          CHANNELS 3 Zrotation Yrotation Xrotation
                          JOINT LeftHandMiddleEnd
                          {
                            OFFSET 2.323256 3e-06 -4e-06
                            CHANNELS 3 Zrotation Yrotation Xrotation
                          }
                        }
                      }
                    }
                  }
                  JOINT LeftHandRing1
                  {
                    OFFSET 2.882606 -0.309162 0.107445
                    CHANNELS 3 Zrotation Yrotation Xrotation
                    JOINT LeftHandRing2
                    {
                      OFFSET 6.033198 0.0 4e-06
                      CHANNELS 3 Zrotation Yrotation Xrotation
                      JOINT LeftHandRing3
                      {
                        OFFSET 4.350578 3e-06 0.0
                        CHANNELS 3 Zrotation Yrotation Xrotation
                        JOINT LeftHandRing4
                        {
                          OFFSET 2.651321 2e-06 -7e-06
                          CHANNELS 3 Zrotation Yrotation Xrotation
                          JOINT LeftHandRingEnd
                          {
                            OFFSET 1.937663 1e-06 -4e-06
                            CHANNELS 3 Zrotation Yrotation Xrotation
                          }
                        }
                      }
                    }
                  }
                  JOINT LeftHandPinky1
                  {
                    OFFSET 2.865315 -1.525436 0.575687
                    CHANNELS 3 Zrotation Yrotation Xrotation
                    JOINT LeftHandPinky2
                    {
                      OFFSET 5.54936 1e-06 -8e-06
                      CHANNELS 3 Zrotation Yrotation Xrotation
                      JOINT LeftHandPinky3
                      {
                        OFFSET 3.070974 0.0 -4e-06
                        CHANNELS 3 Zrotation Yrotation Xrotation
                        JOINT LeftHandPinky4
                        {
                          OFFSET 1.549672 1e-06 0.0
                          CHANNELS 3 Zrotation Yrotation Xrotation
                          JOINT LeftHandPinkyEnd
                          {
                            OFFSET 1.952123 0.0 0.0
                            CHANNELS 3 Zrotation Yrotation Xrotation
                          }
                        }
                      }
                    }
                  }
                }
              }
            }
          }
          JOINT RightShoulder
          {
            OFFSET 23.161716 5.296122 -1.380114
            CHANNELS 3 Zrotation Yrotation Xrotation
            JOINT RightArm
            {
              OFFSET -16.027195 -2e-06 1.1e-05
              CHANNELS 3 Zrotation Yrotation Xrotation
              JOINT RightForeArm
              {
                OFFSET -28.736639 4e-06 2e-06
                CHANNELS 3 Zrotation Yrotation Xrotation
                JOINT RightHand
                {
                  OFFSET -27.133619 6e-06 0.0
                  CHANNELS 3 Zrotation Yrotation Xrotation
                  JOINT RightHandThumb1
                  {
                    OFFSET -2.274328 -3.351035 -0.83067
                    CHANNELS 3 Zrotation Yrotation Xrotation
                    JOINT RightHandThumb2
                    {
                      OFFSET -4.703594 -3e-06 2e-06
                      CHANNELS 3 Zrotation Yrotation Xrotation
                      JOINT RightHandThumb3
                      {
                        OFFSET -2.794935 -4e-06 -3e-06
                        CHANNELS 3 Zrotation Yrotation Xrotation
                        JOINT RightHandThumbEnd
                        {
                          OFFSET -3.183852 4e-06 1e-06
                          CHANNELS 3 Zrotation Yrotation Xrotation
                        }
                      }
                    }
                  }
                  JOINT RightHandIndex1
                  {
                    OFFSET -3.253496 -2.33755 -0.127667
                    CHANNELS 3 Zrotation Yrotation Xrotation
                    JOINT RightHandIndex2
                    {
                      OFFSET -6.344434 0.0 0.0
                      CHANNELS 3 Zrotation Yrotation Xrotation
                      JOINT RightHandIndex3
                      {
                        OFFSET -3.654871 0.0 -8e-06
                        CHANNELS 3 Zrotation Yrotation Xrotation
                        JOINT RightHandIndex4
                        {
                          OFFSET -2.327586 -1e-06 0.0
                          CHANNELS 3 Zrotation Yrotation Xrotation
                          JOINT RightHandIndexEnd
                          {
                            OFFSET -2.770001 3e-06 8e-06
                            CHANNELS 3 Zrotation Yrotation Xrotation
                          }
                        }
                      }
                    }
                  }
                  JOINT RightHandMiddle1
                  {
                    OFFSET -3.168223 -0.944764 0.411762
                    CHANNELS 3 Zrotation Yrotation Xrotation
                    JOINT RightHandMiddle2
                    {
                      OFFSET -6.266691 -1e-06 -4e-06
                      CHANNELS 3 Zrotation Yrotation Xrotation
                      JOINT RightHandMiddle3
                      {
                        OFFSET -4.348901 0.0 0.0
                        CHANNELS 3 Zrotation Yrotation Xrotation
                        JOINT RightHandMiddle4
                        {
                          OFFSET -3.00024 2e-06 -4e-06
                          CHANNELS 3 Zrotation Yrotation Xrotation
                          JOINT RightHandMiddleEnd
                          {
                            OFFSET -2.321477 -4e-06 -4e-06
                            CHANNELS 3 Zrotation Yrotation Xrotation
                          }
                        }
                      }
                    }
                  }
                  JOINT RightHandRing1
                  {
                    OFFSET -2.885654 0.293261 -0.119232
                    CHANNELS 3 Zrotation Yrotation Xrotation
                    JOINT RightHandRing2
                    {
                      OFFSET -6.032835 -1e-06 -4e-06
                      CHANNELS 3 Zrotation Yrotation Xrotation
                      JOINT RightHandRing3
                      {
                        OFFSET -4.33881 0.0 -4e-06
                        CHANNELS 3 Zrotation Yrotation Xrotation
                        JOINT RightHandRing4
                        {
                          OFFSET -2.654903 -4e-06 -4e-06
                          CHANNELS 3 Zrotation Yrotation Xrotation
                          JOINT RightHandRingEnd
                          {
                            OFFSET -1.935122 0.0 4e-06
                            CHANNELS 3 Zrotation Yrotation Xrotation
                          }
                        }
                      }
                    }
                  }
                  JOINT RightHandPinky1
                  {
                    OFFSET -2.866241 1.503904 -0.60527
                    CHANNELS 3 Zrotation Yrotation Xrotation
                    JOINT RightHandPinky2
                    {
                      OFFSET -5.553177 -2e-06 0.0
                      CHANNELS 3 Zrotation Yrotation Xrotation
                      JOINT RightHandPinky3
                      {
                        OFFSET -3.062664 -1e-06 -4e-06
                        CHANNELS 3 Zrotation Yrotation Xrotation
                        JOINT RightHandPinky4
                        {
                          OFFSET -1.546529 2e-06 4e-06
                          CHANNELS 3 Zrotation Yrotation Xrotation
                          JOINT RightHandPinkyEnd
                          {
                            OFFSET -1.952341 0.0 -4e-06
                            CHANNELS 3 Zrotation Yrotation Xrotation
                          }
                        }
                      }
                    }
                  }
                }
              }
            }
          }
        }
      }
    }
    JOINT LeftLeg
    {
      OFFSET -8.443107 2.567604 10.043214
      CHANNELS 3 Zrotation Yrotation Xrotation
      JOINT LeftShin
      {
        OFFSET 43.229198 1e-06 -1e-06
        CHANNELS 3 Zrotation Yrotation Xrotation
        JOINT LeftFoot
        {
          OFFSET 42.298611 1e-06 1e-06
          CHANNELS 3 Zrotation Yrotation Xrotation
          JOINT LeftToeBase
          {
            OFFSET 14.165858 1e-06 0.0
            CHANNELS 3 Zrotation Yrotation Xrotation
            JOINT LeftToeEnd
            {
              OFFSET 6.7141 -0.234461 0.0
              CHANNELS 3 Zrotation Yrotation Xrotation
            }
          }
        }
      }
    }
    JOINT RightLeg
    {
      OFFSET -8.303923 2.592729 -10.047278
      CHANNELS 3 Zrotation Yrotation Xrotation
      JOINT RightShin
      {
        OFFSET -43.369682 0.0 1e-06
        CHANNELS 3 Zrotation Yrotation Xrotation
        JOINT RightFoot
        {
          OFFSET -42.260784 4e-06 2e-06
          CHANNELS 3 Zrotation Yrotation Xrotation
          JOINT RightToeBase
          {
            OFFSET -14.222245 -2e-06 -1e-06
            CHANNELS 3 Zrotation Yrotation Xrotation
            JOINT RightToeEnd
            {
              OFFSET -6.660062 0.232574 -2e-06
              CHANNELS 3 Zrotation Yrotation Xrotation
            }
          }
        }
      }
    }
  }
}
MOTION
Frames: 4
Frame Time: 0.03333333333333333
0.0 0.0 0.0 0.0 -0.0 0.0 5.494342 37.261051 33.038204 104.523994 -75.916046 79.987305 15.08717 -1.921403 0.205433 -2.869342 -0.80215 -0.615379 37.245014 1.382172 -2.95075 38.195789 2.393336 6.028661 -2.771488 -2.385109 3.088425 -16.34716 3.571445 10.284057 4e-06 -0.0 0.0 -0.596477 -0.187374 -0.301561 -0.866431 -0.006125 -0.286183 -1.194636 -0.328114 -0.345823 -30.199083 -64.810295 36.517731 95.46759 -15.672612 -73.991318 155.239624 -4.697791 1.743221 0.664165 21.749464 -27.179283 17.636625 -26.322721 52.411175 -19.46665 -14.395591 29.410378 -0.0 -8.774819 -3e-06 14.805847 -17.706276 7.553605 -0.609777 -1.795654 -3.889328 -4.807088 -11.046807 -2.937848 5e-06 -20.976013 -0.0 -5.019969 -25.033546 -4.031879 6e-06 0.0 1e-06 -10.63453 -5.68697 -3.565589 10.573269 -17.922947 -3.113897 3e-06 -13.821206 -0.0 -0.501778 -31.181498 -4.027014 -11.907988 -57.854782 7.647742 -13.982709 -7.150197 -2.875044 13.772725 -8.401489 -3.218237 0.347733 -34.211536 0.771654 -0.963029 -17.733366 2.621019 2e-06 -0.0 0.0 -17.346411 -20.095213 -4.201784 21.757551 -1.638376 3.866429 1e-06 -6.338822 2e-06 -1.697588 -22.591738 -6.194003 1e-06 -3e-06 -3e-06 -175.656708 -85.605019 2.633224 95.00872 -21.719788 -26.108 122.988632 -4.214973 -5.710619 145.126175 -63.15229 150.607361 22.182119 -20.375898 49.933323 -16.701815 -16.743528 28.476532 -3e-06 -12.690606 -0.0 14.999572 -15.672887 3.062631 -0.105922 -1.513857 -4.27588 -5.039042 -5.612874 -2.953557 4e-06 -11.020526 -0.0 -6.111299 -15.895341 -3.840472 1e-06 -1e-06 -1e-06 -10.283374 -5.680291 -4.34184 11.028295 -11.302406 -2.37263 -1.38427 -14.238583 -6.320122 -0.62544 -26.924194 -3.827599 -3.296987 -48.242607 -4.009091 -13.708527 -7.363479 -3.72094 18.141153 -14.052741 -3.242676 6e-06 -18.787271 -0.0 -0.429709 -8.456042 2.555504 0.0 1e-06 -1e-06 -15.923536 -20.094486 -5.473585 30.419218 -7.190827 1.735925 3e-06 -8.162929 -0.0 -1.861903 -22.861473 -6.167944 1e-06 -2e-06 -1e-06 72.778061 -6.784014 -1.620166 147.854248 -0.101747 0.747809 -97.048363 4.757785 10.125571 -8.551137 1.653932 1.807978 -1.000001 -0.0 -0.0 -113.260284 -13.977354 15.285053 149.715561 -1.57564 -0.634794 -89.598808 18.242434 -6.777449 -6.539064 0.220361 2.298609 -1.000002 -0.0 0.0 
0.0 0.0 0.0 0.0 -0.0 0.0 5.552588 37.302311 33.007492 103.959396 -75.705101 80.683342 15.07139 -1.873 0.267487 -2.860601 -0.803796 -0.569355 37.295853 1.380343 -2.916573 38.405968 2.596289 6.157971 -2.767147 -2.389208 3.045218 -16.254074 3.445604 10.313619 4e-06 -1e-06 1e-06 -0.606059 -0.177247 -0.286761 -0.870652 0.010652 -0.27464 -1.222511 -0.322577 -0.328389 -30.21492 -64.645035 36.561592 95.973579 -15.875101 -74.253578 154.788147 -4.677461 1.763475 0.838509 21.640444 -26.912645 17.636629 -26.322735 52.411198 -19.46666 -14.395598 29.410389 0.0 -8.774821 -4e-06 14.730502 -17.646933 7.558063 -0.609776 -1.795653 -3.889327 -4.807089 -11.046809 -2.93785 4e-06 -20.976019 -1e-06 -5.019969 -25.033556 -4.031882 7e-06 0.0 -2e-06 -10.634534 -5.686971 -3.565588 10.573275 -17.922951 -3.1139 3e-06 -13.821206 1e-06 -0.501779 -31.181505 -4.027014 -11.84684 -57.697887 7.617474 -13.982712 -7.150198 -2.875042 13.772727 -8.401489 -3.218239 0.347733 -34.211555 0.771656 -0.963033 -17.73337 2.621021 3e-06 0.0 -1e-06 -17.346416 -20.095217 -4.201782 21.757557 -1.638376 3.866429 1e-06 -6.338825 -1e-06 -1.697586 -22.591743 -6.194007 -2e-06 -4e-06 -2e-06 -174.842514 -85.486641 1.799086 94.950134 -21.810684 -25.955853 122.738571 -3.82302 -5.839177 146.091049 -63.269382 149.415283 22.182114 -20.375895 49.933319 -16.701811 -16.74353 28.47653 -3e-06 -12.690602 -2e-06 15.068 -15.702298 3.033614 -0.105917 -1.513856 -4.275881 -5.039042 -5.612869 -2.953556 6e-06 -11.02052 -1e-06 -6.111295 -15.89533 -3.840471 -1e-06 -0.0 -2e-06 -10.28337 -5.680287 -4.341838 11.028297 -11.302406 -2.372634 -1.384268 -14.238581 -6.32012 -0.625434 -26.924187 -3.827597 -3.385259 -48.309444 -3.908633 -13.708523 -7.363474 -3.720936 18.141151 -14.052739 -3.242676 6e-06 -18.787268 1e-06 -0.429711 -8.456039 2.555503 -0.0 1e-06 0.0 -15.923534 -20.094481 -5.473582 30.41921 -7.190826 1.735923 3e-06 -8.162925 0.0 -1.861901 -22.861469 -6.167941 1e-06 -2e-06 -2e-06 72.935043 -6.591236 -1.595179 147.893723 -0.054477 0.755483 -97.201958 4.828787 10.10757 -8.542684 1.647019 1.811264 -1.0 -0.0 0.0 -112.974831 -14.145426 15.385835 149.707336 -1.58056 -0.646809 -89.737411 18.318838 -6.693254 -6.545521 0.220141 2.293465 -1.000002 -0.0 1e-06 
0.0 0.0 0.0 0.0 -0.0 0.0 5.603189 37.327583 33.015778 103.530441 -75.528191 81.246819 15.062919 -1.808228 0.333132 -2.854648 -0.82264 -0.537611 37.332912 1.37961 -2.89643 38.568642 2.786656 6.267427 -2.754383 -2.383628 3.008574 -16.171215 3.330082 10.275567 4e-06 -1e-06 1e-06 -0.618685 -0.166916 -0.271874 -0.858102 0.038371 -0.257053 -1.230721 -0.327074 -0.315775 -30.25963 -64.528694 36.589352 96.453323 -16.163193 -74.356308 154.368118 -4.648355 1.789966 0.939953 21.446548 -26.689423 17.636631 -26.322739 52.411198 -19.466663 -14.395598 29.410389 -3e-06 -8.774821 -2e-06 14.700304 -17.629316 7.523294 -0.609777 -1.795654 -3.889329 -4.807088 -11.046811 -2.937847 7e-06 -20.976017 -0.0 -5.01997 -25.033558 -4.031878 6e-06 -1e-06 -0.0 -10.634534 -5.68697 -3.565588 10.573275 -17.922951 -3.113899 3e-06 -13.821209 3e-06 -0.501775 -31.181505 -4.027011 -11.774981 -57.603649 7.584287 -13.982714 -7.150198 -2.875042 13.772731 -8.401493 -3.218239 0.347736 -34.211555 0.771657 -0.963026 -17.733372 2.621021 1e-06 0.0 -0.0 -17.346416 -20.095217 -4.201783 21.757557 -1.638378 3.866428 2e-06 -6.338823 0.0 -1.697587 -22.591745 -6.194004 -1e-06 -5e-06 -4e-06 -173.606567 -85.414566 0.524993 94.869507 -21.953259 -25.994978 122.450172 -3.610896 -5.95093 147.175476 -63.387844 148.396072 22.182117 -20.375895 49.933319 -16.70182 -16.743528 28.476532 -4e-06 -12.690605 -0.0 15.157778 -15.739986 3.002747 -0.10592 -1.513856 -4.275882 -5.03904 -5.612872 -2.953554 7e-06 -11.020523 -2e-06 -6.1113 -15.895334 -3.840469 0.0 -1e-06 1e-06 -10.283373 -5.680287 -4.341836 11.028301 -11.302405 -2.372636 -1.384269 -14.238581 -6.32012 -0.625436 -26.924191 -3.827602 -3.523103 -48.415047 -3.763608 -13.708527 -7.363477 -3.72094 18.141155 -14.052739 -3.242676 7e-06 -18.78727 -1e-06 -0.429709 -8.456039 2.555504 -1e-06 1e-06 1e-06 -15.923538 -20.094482 -5.473584 30.419218 -7.190826 1.735927 2e-06 -8.162928 -1e-06 -1.861901 -22.861467 -6.167942 1e-06 -3e-06 -1e-06 73.145737 -6.425748 -1.608184 147.897736 -0.015377 0.753451 -97.356766 4.870358 10.072508 -8.459044 1.647836 1.81356 -0.999999 -0.0 -0.0 -112.676117 -14.347912 15.533238 149.662857 -1.550553 -0.627609 -89.739639 18.391729 -6.55417 -6.585011 0.214029 2.294547 -1.000001 0.0 0.0 
0.0 0.0 0.0 0.0 -0.0 0.0 5.642759 37.312847 33.028187 103.208977 -75.418434 81.693588 15.04952 -1.75755 0.393324 -2.848324 -0.825349 -0.529785 37.364353 1.368895 -2.891496 38.68182 2.958855 6.331192 -2.732939 -2.396538 3.025837 -16.089407 3.218874 10.155956 3e-06 -1e-06 1e-06 -0.627293 -0.157951 -0.256263 -0.828794 0.066548 -0.233478 -1.215537 -0.334932 -0.307128 -30.25589 -64.444344 36.534367 96.882042 -16.449917 -74.34227 154.026077 -4.60625 1.805148 1.017203 21.211288 -26.457067 17.636625 -26.322729 52.411194 -19.466652 -14.395592 29.410381 -1e-06 -8.774817 -2e-06 14.682343 -17.653643 7.463195 -0.609776 -1.795653 -3.889324 -4.807088 -11.046811 -2.937853 4e-06 -20.976015 -0.0 -5.019969 -25.033556 -4.03188 6e-06 1e-06 -1e-06 -10.634531 -5.686971 -3.565589 10.573267 -17.922951 -3.113897 2e-06 -13.821206 -1e-06 -0.50178 -31.181498 -4.027016 -11.699887 -57.534534 7.564213 -13.982712 -7.150197 -2.875041 13.772726 -8.401489 -3.218237 0.347734 -34.211544 0.771653 -0.963029 -17.733366 2.62102 1e-06 -0.0 -1e-06 -17.346413 -20.095213 -4.201783 21.757551 -1.638377 3.866427 1e-06 -6.338823 1e-06 -1.697586 -22.591742 -6.194005 -4e-06 -6e-06 -1e-06 -172.098343 -85.400406 -1.035045 94.794128 -22.115944 -26.136494 122.115776 -3.528476 -6.022047 148.366989 -63.466721 147.565201 22.182121 -20.375896 49.933323 -16.701813 -16.743525 28.47653 -2e-06 -12.690601 -2e-06 15.258142 -15.761809 2.987277 -0.10592 -1.513855 -4.275881 -5.039041 -5.612874 -2.953555 6e-06 -11.020525 -2e-06 -6.1113 -15.895338 -3.840473 0.0 -0.0 -0.0 -10.283373 -5.680289 -4.341839 11.028293 -11.302406 -2.372631 -1.38427 -14.238582 -6.320122 -0.625445 -26.924194 -3.827598 -3.652928 -48.592007 -3.630354 -13.708529 -7.363479 -3.72094 18.14115 -14.052739 -3.242675 5e-06 -18.787271 -1e-06 -0.42971 -8.456041 2.555502 -1e-06 1e-06 -1e-06 -15.923539 -20.094486 -5.473586 30.419218 -7.190825 1.735928 3e-06 -8.162929 -2e-06 -1.861904 -22.861475 -6.167943 1e-06 -1e-06 -2e-06 73.279915 -6.285756 -1.654861 147.891907 -5.4e-05 0.735596 -97.228798 4.840996 10.026405 -8.303375 1.661723 1.803264 -1.000001 -0.0 -0.0 -112.453674 -14.504558 15.683897 149.621735 -1.512994 -0.593099 -89.489273 18.45632 -6.379539 -6.608977 0.200474 2.300776 -1.000001 0.0 1e-06 
